<?xml version="1.0" encoding="UTF-8"?>
<svg xmlns="http://www.w3.org/2000/svg" xmlns:xlink="http://www.w3.org/1999/xlink" width="3872.98" height="3872.98" viewBox="0 0 3872.98 3872.98">
<defs>
<clipPath id="clip-0">
<path clip-rule="nonzero" d="M 697 896 L 3176 896 L 3176 2977 L 697 2977 Z M 697 896 "/>
</clipPath>
<clipPath id="clip-1">
<path clip-rule="evenodd" d="M 1225 2773.441406 C 1234.828125 2773.441406 1242.808594 2781.421875 1242.808594 2791.269531 C 1242.808594 2801.121094 1234.839844 2809.121094 1225 2809.121094 C 1215.160156 2809.121094 1207.171875 2801.121094 1207.171875 2791.269531 C 1207.171875 2781.421875 1215.171875 2773.441406 1225 2773.441406 Z M 1225 2876.878906 C 1177.789062 2876.878906 1139.378906 2838.488281 1139.378906 2791.289062 C 1139.378906 2744.070312 1177.789062 2705.679688 1225 2705.679688 C 1272.199219 2705.679688 1310.621094 2744.070312 1310.621094 2791.289062 C 1310.621094 2838.488281 1272.21875 2876.878906 1225 2876.878906 Z M 2651.621094 2773.441406 C 2661.449219 2773.441406 2669.449219 2781.421875 2669.449219 2791.269531 C 2669.449219 2801.121094 2661.46875 2809.121094 2651.621094 2809.121094 C 2641.78125 2809.121094 2633.761719 2801.121094 2633.761719 2791.269531 C 2633.761719 2781.421875 2641.800781 2773.441406 2651.621094 2773.441406 Z M 2651.621094 2876.878906 C 2604.390625 2876.878906 2565.988281 2838.488281 2565.988281 2791.289062 C 2565.988281 2744.070312 2604.390625 2705.679688 2651.621094 2705.679688 C 2698.820312 2705.679688 2737.21875 2744.070312 2737.21875 2791.289062 C 2737.21875 2838.488281 2698.839844 2876.878906 2651.621094 2876.878906 Z M 2651.621094 2673.589844 C 2716.488281 2673.589844 2769.289062 2726.378906 2769.289062 2791.269531 C 2769.289062 2856.160156 2716.488281 2908.949219 2651.621094 2908.949219 C 2586.738281 2908.949219 2533.941406 2856.160156 2533.941406 2791.269531 C 2533.941406 2726.378906 2586.738281 2673.589844 2651.621094 2673.589844 Z M 2651.621094 2976.738281 C 2549.371094 2976.738281 2466.179688 2893.550781 2466.179688 2791.289062 C 2466.179688 2689.03125 2549.371094 2605.839844 2651.621094 2605.839844 C 2753.878906 2605.839844 2837.050781 2689.03125 2837.050781 2791.289062 C 2837.050781 2893.550781 2753.859375 2976.738281 2651.621094 2976.738281 Z M 1225 2673.589844 C 1289.871094 2673.589844 1342.671875 2726.378906 1342.671875 2791.269531 C 1342.671875 2856.160156 1289.878906 2908.949219 1225 2908.949219 C 1160.109375 2908.949219 1107.339844 2856.160156 1107.339844 2791.269531 C 1107.339844 2726.378906 1160.109375 2673.589844 1225 2673.589844 Z M 1225 2976.738281 C 1122.75 2976.738281 1039.550781 2893.550781 1039.550781 2791.289062 C 1039.550781 2689.03125 1122.75 2605.839844 1225 2605.839844 C 1327.25 2605.839844 1410.449219 2689.03125 1410.449219 2791.289062 C 1410.449219 2893.550781 1327.25 2976.738281 1225 2976.738281 Z M 1406.949219 2140.609375 L 1406.949219 2323.75 L 1093.390625 2323.75 C 1100.429688 2317.828125 1107.511719 2311.460938 1114.640625 2304.628906 C 1115.378906 2303.921875 1116.109375 2303.128906 1116.789062 2302.359375 C 1180.328125 2228.808594 1282.058594 2173.179688 1406.949219 2140.609375 Z M 1844.808594 2119.648438 L 1844.808594 2323.75 L 1474.75 2323.75 L 1474.75 2125.640625 C 1538.550781 2113.941406 1607.109375 2107.789062 1678.761719 2107.789062 C 1719.171875 2107.789062 1759.808594 2109.839844 1799.550781 2113.878906 C 1815.140625 2115.480469 1830.21875 2117.410156 1844.808594 2119.648438 Z M 2283.769531 2323.75 L 1912.609375 2323.75 L 1912.609375 2132.96875 C 2049.449219 2166.078125 2140.339844 2227.660156 2222.5 2283.289062 C 2243.089844 2297.21875 2263.339844 2310.96875 2283.769531 2323.75 Z M 3107.460938 2609.46875 C 3021.929688 2608.011719 2952.820312 2541.308594 2952.820312 2459.539062 C 2952.820312 2455.03125 2953.019531 2450.539062 2953.429688 2446.070312 C 3030.460938 2464.941406 3100.589844 2522.359375 3107.460938 2609.46875 Z M 841.90625 2405.210938 C 847.234375 2405.011719 853.09375 2404.878906 859.566406 2404.761719 C 889.488281 2404.191406 926.898438 2403.460938 969.140625 2391.539062 L 1439.980469 2391.539062 L 1440.851562 2391.558594 L 1441.730469 2391.539062 L 1877.828125 2391.539062 L 1878.699219 2391.558594 L 1879.578125 2391.539062 L 2454.28125 2391.539062 L 2458.339844 2391.988281 L 2886.238281 2436.808594 C 2885.429688 2444.328125 2885.019531 2451.921875 2885.019531 2459.539062 C 2885.019531 2578.839844 2984.871094 2676.050781 3108.03125 2677.230469 L 3108.03125 2756.988281 C 3047.871094 2756.328125 2987.75 2755.789062 2927.648438 2755.359375 C 2909.898438 2618.960938 2792.410156 2512.941406 2651.621094 2512.941406 C 2511.25 2512.941406 2393.839844 2618.628906 2375.699219 2754.570312 C 2257.570312 2754.851562 2139.449219 2755.359375 2021.28125 2755.851562 C 1845.21875 2756.578125 1669.078125 2757.308594 1492.558594 2757.390625 C 1475.828125 2624.601562 1362.21875 2521.570312 1224.980469 2521.570312 C 1091.078125 2521.570312 979.660156 2619.671875 958.828125 2747.808594 C 916.832031 2735.601562 882.832031 2723.128906 855.6875 2709.480469 C 872.8125 2666.480469 881.765625 2619.75 881.765625 2572.570312 C 881.765625 2513.078125 868.105469 2456.070312 841.90625 2405.210938 Z M 2552.96875 1503.460938 C 2535.96875 1503.460938 2520.191406 1512.578125 2511.699219 1527.238281 C 2498.621094 1549.941406 2506.398438 1579.058594 2529.101562 1592.179688 C 2551.179688 1604.960938 2581.480469 1596.601562 2594.058594 1574.789062 C 2607.160156 1552.078125 2599.378906 1522.960938 2576.671875 1509.851562 C 2569.460938 1505.671875 2561.269531 1503.460938 2552.96875 1503.460938 Z M 2552.828125 1666.371094 C 2593.949219 1666.371094 2632.238281 1644.28125 2652.808594 1608.691406 C 2684.578125 1553.621094 2665.628906 1482.949219 2610.570312 1451.148438 C 2593.058594 1441.019531 2573.140625 1435.671875 2552.988281 1435.671875 C 2511.878906 1435.671875 2473.589844 1457.769531 2453.019531 1493.351562 C 2421.238281 1548.429688 2440.199219 1619.101562 2495.25 1650.898438 C 2512.769531 1661.019531 2532.679688 1666.371094 2552.828125 1666.371094 Z M 2263.160156 1175.421875 C 2246.199219 1175.421875 2230.398438 1184.539062 2221.929688 1199.199219 C 2215.589844 1210.199219 2213.890625 1223 2217.179688 1235.28125 C 2220.46875 1247.550781 2228.328125 1257.789062 2239.320312 1264.128906 C 2261.46875 1276.910156 2291.691406 1268.589844 2304.269531 1246.730469 C 2310.640625 1235.710938 2312.308594 1222.898438 2309.039062 1210.640625 C 2305.75 1198.378906 2297.851562 1188.128906 2286.859375 1181.769531 C 2279.628906 1177.640625 2271.429688 1175.421875 2263.160156 1175.421875 Z M 2263.019531 1338.328125 C 2304.128906 1338.328125 2342.449219 1316.210938 2362.960938 1280.671875 C 2378.359375 1254 2382.460938 1222.890625 2374.480469 1193.160156 C 2366.5 1163.410156 2347.410156 1138.53125 2320.71875 1123.121094 C 2303.230469 1112.988281 2283.308594 1107.660156 2263.160156 1107.660156 C 2222.070312 1107.660156 2183.769531 1129.738281 2163.210938 1165.320312 C 2147.839844 1192 2143.730469 1223.058594 2151.699219 1252.828125 C 2159.660156 1282.589844 2178.769531 1307.460938 2205.441406 1322.859375 C 2222.949219 1332.980469 2242.871094 1338.328125 2263.019531 1338.328125 Z M 2242.730469 1586.148438 C 2251.421875 1586.148438 2260.109375 1582.851562 2266.691406 1576.230469 L 2597.199219 1245.71875 C 2610.429688 1232.488281 2610.429688 1211.019531 2597.199219 1197.78125 C 2584 1184.539062 2562.46875 1184.539062 2549.269531 1197.78125 L 2218.78125 1528.289062 C 2205.539062 1541.53125 2205.539062 1562.988281 2218.78125 1576.230469 C 2225.398438 1582.851562 2234.058594 1586.148438 2242.730469 1586.148438 Z M 2407.570312 964.039062 C 2333.820312 964.039062 2260.839844 983.648438 2196.558594 1020.769531 C 1994.621094 1137.359375 1925.199219 1396.480469 2041.761719 1598.429688 C 2117.070312 1728.890625 2257.589844 1809.941406 2408.421875 1809.941406 C 2482.171875 1809.941406 2555.140625 1790.328125 2619.441406 1753.199219 C 2717.261719 1696.730469 2787.210938 1605.539062 2816.449219 1496.441406 C 2845.679688 1387.320312 2830.691406 1273.359375 2774.210938 1175.558594 C 2698.898438 1045.089844 2558.410156 964.039062 2407.570312 964.039062 Z M 2408.421875 1877.71875 C 2233.449219 1877.71875 2070.460938 1783.699219 1983.039062 1632.308594 C 1847.789062 1398.03125 1928.359375 1097.328125 2162.640625 962.058594 C 2237.21875 919.011719 2321.921875 896.261719 2407.550781 896.261719 C 2582.539062 896.261719 2745.511719 990.289062 2832.910156 1141.660156 C 2898.429688 1255.140625 2915.828125 1387.390625 2881.929688 1513.988281 C 2848 1640.578125 2766.808594 1746.410156 2653.300781 1811.941406 C 2578.761719 1854.960938 2494.050781 1877.71875 2408.421875 1877.71875 Z M 798.320312 2669.039062 C 752.195312 2620.230469 756.867188 2553.351562 784.160156 2443.511719 L 784.523438 2442.03125 C 803.878906 2481.878906 813.964844 2526.238281 813.964844 2572.570312 C 813.964844 2605.628906 808.613281 2638.351562 798.320312 2669.039062 Z M 796.980469 2753.46875 L 796.972656 2753.46875 C 841.421875 2781.171875 901.871094 2803.539062 980.664062 2824.070312 C 983.472656 2824.800781 986.339844 2825.171875 989.195312 2825.171875 C 996.601562 2825.171875 1003.921875 2822.730469 1009.910156 2818.039062 C 1018.210938 2811.640625 1023.078125 2801.75 1023.078125 2791.230469 C 1023.078125 2679.890625 1113.640625 2589.320312 1224.96875 2589.320312 C 1336.300781 2589.320312 1426.890625 2679.890625 1426.890625 2791.230469 C 1426.890625 2809.96875 1442.058594 2825.128906 1460.769531 2825.128906 C 1648 2825.128906 1834.828125 2824.371094 2021.53125 2823.578125 C 2150.128906 2823.050781 2278.660156 2822.53125 2407.238281 2822.21875 C 2425.761719 2822.179688 2440.828125 2807.289062 2441.039062 2788.730469 C 2442.421875 2674 2536.859375 2580.671875 2651.601562 2580.671875 C 2766.691406 2580.671875 2861.121094 2674.300781 2862.191406 2789.300781 C 2862.351562 2807.820312 2877.359375 2822.808594 2895.871094 2822.890625 C 2977.679688 2823.378906 3059.550781 2824.109375 3141.539062 2825.128906 C 3150.738281 2825.328125 3159.328125 2821.730469 3165.769531 2815.359375 C 3172.191406 2809.019531 3175.839844 2800.308594 3175.839844 2791.25 L 3175.839844 2641.910156 C 3175.839844 2641.199219 3175.851562 2640.519531 3175.839844 2639.789062 L 3175.839844 2623.570312 C 3175.839844 2493.398438 3071.878906 2388.03125 2928.671875 2373.039062 L 2465.429688 2324.519531 C 2393.109375 2316.921875 2334.628906 2277.300781 2260.539062 2227.128906 C 2169.710938 2165.609375 2059.449219 2090.949219 1886.378906 2058.019531 C 1885.488281 2057.800781 1884.578125 2057.640625 1883.671875 2057.5 C 1859.210938 2052.929688 1833.519531 2049.171875 1806.449219 2046.410156 C 1764.421875 2042.121094 1721.480469 2039.949219 1678.78125 2039.949219 C 1592.738281 2039.949219 1510.550781 2048.480469 1434.730469 2064.648438 L 1432.980469 2065.011719 C 1275.851562 2098.769531 1146.21875 2165.351562 1066.589844 2256.738281 C 984.96875 2334.53125 914.742188 2335.851562 858.265625 2336.96875 C 829.398438 2337.519531 798.5 2338.109375 772.457031 2351.058594 C 748.601562 2362.921875 728.8125 2385.101562 718.382812 2427.121094 C 677.460938 2591.820312 692.507812 2685.328125 791.488281 2749.980469 C 793.160156 2751.28125 795.003906 2752.460938 796.972656 2753.46875 L 796.980469 2753.46875 "/>
</clipPath>
<linearGradient id="linear-pattern-0" gradientUnits="userSpaceOnUse" x1="-0.01597" y1="0" x2="1.000004" y2="0" gradientTransform="matrix(2459.11, 0, 0, 2459.11, 716.731, 1936.5)">
<stop offset="0" stop-color="rgb(95.684814%, 96.861267%, 98.822021%)" stop-opacity="1"/>
<stop offset="0.015625" stop-color="rgb(95.684814%, 96.861267%, 98.822021%)" stop-opacity="1"/>
<stop offset="0.0195312" stop-color="rgb(95.446777%, 96.691895%, 98.74115%)" stop-opacity="1"/>
<stop offset="0.0234375" stop-color="rgb(95.20874%, 96.524048%, 98.660278%)" stop-opacity="1"/>
<stop offset="0.0273437" stop-color="rgb(94.967651%, 96.351624%, 98.577881%)" stop-opacity="1"/>
<stop offset="0.03125" stop-color="rgb(94.726562%, 96.180725%, 98.495483%)" stop-opacity="1"/>
<stop offset="0.0351562" stop-color="rgb(94.485474%, 96.009827%, 98.41156%)" stop-opacity="1"/>
<stop offset="0.0390625" stop-color="rgb(94.244385%, 95.838928%, 98.329163%)" stop-opacity="1"/>
<stop offset="0.0429687" stop-color="rgb(94.003296%, 95.66803%, 98.246765%)" stop-opacity="1"/>
<stop offset="0.046875" stop-color="rgb(93.762207%, 95.497131%, 98.164368%)" stop-opacity="1"/>
<stop offset="0.0507812" stop-color="rgb(93.519592%, 95.324707%, 98.08197%)" stop-opacity="1"/>
<stop offset="0.0546875" stop-color="rgb(93.278503%, 95.153809%, 97.999573%)" stop-opacity="1"/>
<stop offset="0.0585937" stop-color="rgb(93.037415%, 94.98291%, 97.917175%)" stop-opacity="1"/>
<stop offset="0.0625" stop-color="rgb(92.796326%, 94.812012%, 97.834778%)" stop-opacity="1"/>
<stop offset="0.0664062" stop-color="rgb(92.555237%, 94.639587%, 97.75238%)" stop-opacity="1"/>
<stop offset="0.0703125" stop-color="rgb(92.314148%, 94.468689%, 97.669983%)" stop-opacity="1"/>
<stop offset="0.0742187" stop-color="rgb(92.073059%, 94.297791%, 97.587585%)" stop-opacity="1"/>
<stop offset="0.078125" stop-color="rgb(91.83197%, 94.126892%, 97.505188%)" stop-opacity="1"/>
<stop offset="0.0820312" stop-color="rgb(91.590881%, 93.955994%, 97.422791%)" stop-opacity="1"/>
<stop offset="0.0859375" stop-color="rgb(91.349792%, 93.785095%, 97.340393%)" stop-opacity="1"/>
<stop offset="0.0898437" stop-color="rgb(91.107178%, 93.612671%, 97.257996%)" stop-opacity="1"/>
<stop offset="0.09375" stop-color="rgb(90.866089%, 93.441772%, 97.175598%)" stop-opacity="1"/>
<stop offset="0.0976562" stop-color="rgb(90.625%, 93.270874%, 97.091675%)" stop-opacity="1"/>
<stop offset="0.101562" stop-color="rgb(90.383911%, 93.099976%, 97.009277%)" stop-opacity="1"/>
<stop offset="0.105469" stop-color="rgb(90.142822%, 92.927551%, 96.92688%)" stop-opacity="1"/>
<stop offset="0.109375" stop-color="rgb(89.901733%, 92.756653%, 96.844482%)" stop-opacity="1"/>
<stop offset="0.113281" stop-color="rgb(89.660645%, 92.585754%, 96.762085%)" stop-opacity="1"/>
<stop offset="0.117187" stop-color="rgb(89.419556%, 92.414856%, 96.679688%)" stop-opacity="1"/>
<stop offset="0.121094" stop-color="rgb(89.178467%, 92.243958%, 96.59729%)" stop-opacity="1"/>
<stop offset="0.125" stop-color="rgb(88.937378%, 92.073059%, 96.514893%)" stop-opacity="1"/>
<stop offset="0.128906" stop-color="rgb(88.694763%, 91.900635%, 96.432495%)" stop-opacity="1"/>
<stop offset="0.132812" stop-color="rgb(88.453674%, 91.729736%, 96.350098%)" stop-opacity="1"/>
<stop offset="0.136719" stop-color="rgb(88.212585%, 91.558838%, 96.2677%)" stop-opacity="1"/>
<stop offset="0.140625" stop-color="rgb(87.971497%, 91.387939%, 96.185303%)" stop-opacity="1"/>
<stop offset="0.144531" stop-color="rgb(87.730408%, 91.215515%, 96.102905%)" stop-opacity="1"/>
<stop offset="0.148437" stop-color="rgb(87.489319%, 91.044617%, 96.020508%)" stop-opacity="1"/>
<stop offset="0.152344" stop-color="rgb(87.24823%, 90.873718%, 95.93811%)" stop-opacity="1"/>
<stop offset="0.15625" stop-color="rgb(87.007141%, 90.70282%, 95.855713%)" stop-opacity="1"/>
<stop offset="0.160156" stop-color="rgb(86.766052%, 90.531921%, 95.773315%)" stop-opacity="1"/>
<stop offset="0.164062" stop-color="rgb(86.524963%, 90.361023%, 95.690918%)" stop-opacity="1"/>
<stop offset="0.167969" stop-color="rgb(86.283875%, 90.188599%, 95.606995%)" stop-opacity="1"/>
<stop offset="0.171875" stop-color="rgb(86.042786%, 90.0177%, 95.524597%)" stop-opacity="1"/>
<stop offset="0.175781" stop-color="rgb(85.800171%, 89.846802%, 95.4422%)" stop-opacity="1"/>
<stop offset="0.179687" stop-color="rgb(85.559082%, 89.675903%, 95.359802%)" stop-opacity="1"/>
<stop offset="0.183594" stop-color="rgb(85.317993%, 89.505005%, 95.277405%)" stop-opacity="1"/>
<stop offset="0.1875" stop-color="rgb(85.076904%, 89.334106%, 95.195007%)" stop-opacity="1"/>
<stop offset="0.191406" stop-color="rgb(84.835815%, 89.161682%, 95.11261%)" stop-opacity="1"/>
<stop offset="0.195312" stop-color="rgb(84.594727%, 88.990784%, 95.030212%)" stop-opacity="1"/>
<stop offset="0.199219" stop-color="rgb(84.353638%, 88.819885%, 94.947815%)" stop-opacity="1"/>
<stop offset="0.203125" stop-color="rgb(84.112549%, 88.648987%, 94.865417%)" stop-opacity="1"/>
<stop offset="0.207031" stop-color="rgb(83.87146%, 88.476562%, 94.78302%)" stop-opacity="1"/>
<stop offset="0.210937" stop-color="rgb(83.630371%, 88.305664%, 94.700623%)" stop-opacity="1"/>
<stop offset="0.214844" stop-color="rgb(83.387756%, 88.134766%, 94.618225%)" stop-opacity="1"/>
<stop offset="0.21875" stop-color="rgb(83.146667%, 87.963867%, 94.535828%)" stop-opacity="1"/>
<stop offset="0.222656" stop-color="rgb(82.905579%, 87.792969%, 94.45343%)" stop-opacity="1"/>
<stop offset="0.226562" stop-color="rgb(82.66449%, 87.62207%, 94.371033%)" stop-opacity="1"/>
<stop offset="0.230469" stop-color="rgb(82.423401%, 87.449646%, 94.288635%)" stop-opacity="1"/>
<stop offset="0.234375" stop-color="rgb(82.182312%, 87.278748%, 94.206238%)" stop-opacity="1"/>
<stop offset="0.238281" stop-color="rgb(81.941223%, 87.107849%, 94.122314%)" stop-opacity="1"/>
<stop offset="0.242188" stop-color="rgb(81.700134%, 86.936951%, 94.039917%)" stop-opacity="1"/>
<stop offset="0.246094" stop-color="rgb(81.459045%, 86.764526%, 93.95752%)" stop-opacity="1"/>
<stop offset="0.25" stop-color="rgb(81.217957%, 86.593628%, 93.875122%)" stop-opacity="1"/>
<stop offset="0.253906" stop-color="rgb(80.975342%, 86.422729%, 93.792725%)" stop-opacity="1"/>
<stop offset="0.257812" stop-color="rgb(80.734253%, 86.251831%, 93.710327%)" stop-opacity="1"/>
<stop offset="0.261719" stop-color="rgb(80.493164%, 86.080933%, 93.62793%)" stop-opacity="1"/>
<stop offset="0.265625" stop-color="rgb(80.252075%, 85.910034%, 93.545532%)" stop-opacity="1"/>
<stop offset="0.269531" stop-color="rgb(80.010986%, 85.73761%, 93.463135%)" stop-opacity="1"/>
<stop offset="0.273438" stop-color="rgb(79.769897%, 85.566711%, 93.380737%)" stop-opacity="1"/>
<stop offset="0.277344" stop-color="rgb(79.528809%, 85.395813%, 93.29834%)" stop-opacity="1"/>
<stop offset="0.28125" stop-color="rgb(79.28772%, 85.224915%, 93.215942%)" stop-opacity="1"/>
<stop offset="0.285156" stop-color="rgb(79.046631%, 85.05249%, 93.133545%)" stop-opacity="1"/>
<stop offset="0.289062" stop-color="rgb(78.805542%, 84.881592%, 93.051147%)" stop-opacity="1"/>
<stop offset="0.292969" stop-color="rgb(78.564453%, 84.710693%, 92.96875%)" stop-opacity="1"/>
<stop offset="0.296875" stop-color="rgb(78.323364%, 84.539795%, 92.886353%)" stop-opacity="1"/>
<stop offset="0.300781" stop-color="rgb(78.08075%, 84.368896%, 92.802429%)" stop-opacity="1"/>
<stop offset="0.304688" stop-color="rgb(77.839661%, 84.197998%, 92.720032%)" stop-opacity="1"/>
<stop offset="0.308594" stop-color="rgb(77.598572%, 84.025574%, 92.637634%)" stop-opacity="1"/>
<stop offset="0.3125" stop-color="rgb(77.357483%, 83.854675%, 92.555237%)" stop-opacity="1"/>
<stop offset="0.316406" stop-color="rgb(77.116394%, 83.683777%, 92.472839%)" stop-opacity="1"/>
<stop offset="0.320312" stop-color="rgb(76.875305%, 83.512878%, 92.390442%)" stop-opacity="1"/>
<stop offset="0.324219" stop-color="rgb(76.634216%, 83.34198%, 92.308044%)" stop-opacity="1"/>
<stop offset="0.328125" stop-color="rgb(76.393127%, 83.171082%, 92.225647%)" stop-opacity="1"/>
<stop offset="0.332031" stop-color="rgb(76.152039%, 82.998657%, 92.14325%)" stop-opacity="1"/>
<stop offset="0.335937" stop-color="rgb(75.91095%, 82.827759%, 92.060852%)" stop-opacity="1"/>
<stop offset="0.339844" stop-color="rgb(75.668335%, 82.65686%, 91.978455%)" stop-opacity="1"/>
<stop offset="0.34375" stop-color="rgb(75.427246%, 82.485962%, 91.896057%)" stop-opacity="1"/>
<stop offset="0.347656" stop-color="rgb(75.186157%, 82.313538%, 91.81366%)" stop-opacity="1"/>
<stop offset="0.351562" stop-color="rgb(74.945068%, 82.142639%, 91.731262%)" stop-opacity="1"/>
<stop offset="0.355469" stop-color="rgb(74.703979%, 81.971741%, 91.648865%)" stop-opacity="1"/>
<stop offset="0.359375" stop-color="rgb(74.462891%, 81.800842%, 91.566467%)" stop-opacity="1"/>
<stop offset="0.363281" stop-color="rgb(74.221802%, 81.629944%, 91.48407%)" stop-opacity="1"/>
<stop offset="0.367188" stop-color="rgb(73.980713%, 81.459045%, 91.401672%)" stop-opacity="1"/>
<stop offset="0.371094" stop-color="rgb(73.739624%, 81.286621%, 91.317749%)" stop-opacity="1"/>
<stop offset="0.375" stop-color="rgb(73.498535%, 81.115723%, 91.235352%)" stop-opacity="1"/>
<stop offset="0.378906" stop-color="rgb(73.25592%, 80.944824%, 91.152954%)" stop-opacity="1"/>
<stop offset="0.382812" stop-color="rgb(73.014832%, 80.773926%, 91.070557%)" stop-opacity="1"/>
<stop offset="0.386719" stop-color="rgb(72.773743%, 80.601501%, 90.988159%)" stop-opacity="1"/>
<stop offset="0.390625" stop-color="rgb(72.532654%, 80.430603%, 90.905762%)" stop-opacity="1"/>
<stop offset="0.394531" stop-color="rgb(72.291565%, 80.259705%, 90.823364%)" stop-opacity="1"/>
<stop offset="0.398437" stop-color="rgb(72.050476%, 80.088806%, 90.740967%)" stop-opacity="1"/>
<stop offset="0.402344" stop-color="rgb(71.809387%, 79.917908%, 90.658569%)" stop-opacity="1"/>
<stop offset="0.40625" stop-color="rgb(71.568298%, 79.747009%, 90.576172%)" stop-opacity="1"/>
<stop offset="0.410156" stop-color="rgb(71.327209%, 79.574585%, 90.493774%)" stop-opacity="1"/>
<stop offset="0.414062" stop-color="rgb(71.086121%, 79.403687%, 90.411377%)" stop-opacity="1"/>
<stop offset="0.417969" stop-color="rgb(70.845032%, 79.232788%, 90.328979%)" stop-opacity="1"/>
<stop offset="0.421875" stop-color="rgb(70.603943%, 79.06189%, 90.246582%)" stop-opacity="1"/>
<stop offset="0.425781" stop-color="rgb(70.361328%, 78.889465%, 90.164185%)" stop-opacity="1"/>
<stop offset="0.429687" stop-color="rgb(70.120239%, 78.718567%, 90.081787%)" stop-opacity="1"/>
<stop offset="0.433594" stop-color="rgb(69.87915%, 78.547668%, 89.99939%)" stop-opacity="1"/>
<stop offset="0.4375" stop-color="rgb(69.638062%, 78.37677%, 89.916992%)" stop-opacity="1"/>
<stop offset="0.441406" stop-color="rgb(69.396973%, 78.205872%, 89.833069%)" stop-opacity="1"/>
<stop offset="0.445312" stop-color="rgb(69.155884%, 78.034973%, 89.750671%)" stop-opacity="1"/>
<stop offset="0.449219" stop-color="rgb(68.914795%, 77.862549%, 89.668274%)" stop-opacity="1"/>
<stop offset="0.453125" stop-color="rgb(68.673706%, 77.69165%, 89.585876%)" stop-opacity="1"/>
<stop offset="0.457031" stop-color="rgb(68.432617%, 77.520752%, 89.503479%)" stop-opacity="1"/>
<stop offset="0.460938" stop-color="rgb(68.191528%, 77.349854%, 89.421082%)" stop-opacity="1"/>
<stop offset="0.464844" stop-color="rgb(67.948914%, 77.177429%, 89.338684%)" stop-opacity="1"/>
<stop offset="0.46875" stop-color="rgb(67.707825%, 77.006531%, 89.256287%)" stop-opacity="1"/>
<stop offset="0.472656" stop-color="rgb(67.466736%, 76.835632%, 89.173889%)" stop-opacity="1"/>
<stop offset="0.476562" stop-color="rgb(67.225647%, 76.664734%, 89.091492%)" stop-opacity="1"/>
<stop offset="0.480469" stop-color="rgb(66.984558%, 76.493835%, 89.009094%)" stop-opacity="1"/>
<stop offset="0.484375" stop-color="rgb(66.743469%, 76.322937%, 88.926697%)" stop-opacity="1"/>
<stop offset="0.488281" stop-color="rgb(66.50238%, 76.150513%, 88.844299%)" stop-opacity="1"/>
<stop offset="0.492188" stop-color="rgb(66.261292%, 75.979614%, 88.761902%)" stop-opacity="1"/>
<stop offset="0.496094" stop-color="rgb(66.020203%, 75.808716%, 88.679504%)" stop-opacity="1"/>
<stop offset="0.5" stop-color="rgb(65.779114%, 75.637817%, 88.597107%)" stop-opacity="1"/>
<stop offset="0.503906" stop-color="rgb(65.538025%, 75.466919%, 88.513184%)" stop-opacity="1"/>
<stop offset="0.507812" stop-color="rgb(65.296936%, 75.296021%, 88.430786%)" stop-opacity="1"/>
<stop offset="0.511719" stop-color="rgb(65.054321%, 75.123596%, 88.348389%)" stop-opacity="1"/>
<stop offset="0.515625" stop-color="rgb(64.813232%, 74.952698%, 88.265991%)" stop-opacity="1"/>
<stop offset="0.519531" stop-color="rgb(64.572144%, 74.781799%, 88.183594%)" stop-opacity="1"/>
<stop offset="0.523438" stop-color="rgb(64.331055%, 74.610901%, 88.101196%)" stop-opacity="1"/>
<stop offset="0.527344" stop-color="rgb(64.089966%, 74.438477%, 88.018799%)" stop-opacity="1"/>
<stop offset="0.53125" stop-color="rgb(63.848877%, 74.267578%, 87.936401%)" stop-opacity="1"/>
<stop offset="0.535156" stop-color="rgb(63.607788%, 74.09668%, 87.854004%)" stop-opacity="1"/>
<stop offset="0.539062" stop-color="rgb(63.366699%, 73.925781%, 87.771606%)" stop-opacity="1"/>
<stop offset="0.542969" stop-color="rgb(63.12561%, 73.754883%, 87.689209%)" stop-opacity="1"/>
<stop offset="0.546875" stop-color="rgb(62.884521%, 73.583984%, 87.606812%)" stop-opacity="1"/>
<stop offset="0.550781" stop-color="rgb(62.641907%, 73.41156%, 87.524414%)" stop-opacity="1"/>
<stop offset="0.554688" stop-color="rgb(62.400818%, 73.240662%, 87.442017%)" stop-opacity="1"/>
<stop offset="0.558594" stop-color="rgb(62.159729%, 73.069763%, 87.359619%)" stop-opacity="1"/>
<stop offset="0.5625" stop-color="rgb(61.91864%, 72.898865%, 87.277222%)" stop-opacity="1"/>
<stop offset="0.566406" stop-color="rgb(61.677551%, 72.72644%, 87.194824%)" stop-opacity="1"/>
<stop offset="0.570312" stop-color="rgb(61.436462%, 72.555542%, 87.112427%)" stop-opacity="1"/>
<stop offset="0.574219" stop-color="rgb(61.195374%, 72.384644%, 87.028503%)" stop-opacity="1"/>
<stop offset="0.578125" stop-color="rgb(60.954285%, 72.213745%, 86.946106%)" stop-opacity="1"/>
<stop offset="0.582031" stop-color="rgb(60.713196%, 72.042847%, 86.863708%)" stop-opacity="1"/>
<stop offset="0.585937" stop-color="rgb(60.472107%, 71.871948%, 86.781311%)" stop-opacity="1"/>
<stop offset="0.589844" stop-color="rgb(60.229492%, 71.699524%, 86.698914%)" stop-opacity="1"/>
<stop offset="0.59375" stop-color="rgb(59.988403%, 71.528625%, 86.616516%)" stop-opacity="1"/>
<stop offset="0.597656" stop-color="rgb(59.747314%, 71.357727%, 86.534119%)" stop-opacity="1"/>
<stop offset="0.601562" stop-color="rgb(59.506226%, 71.186829%, 86.451721%)" stop-opacity="1"/>
<stop offset="0.605469" stop-color="rgb(59.265137%, 71.014404%, 86.369324%)" stop-opacity="1"/>
<stop offset="0.609375" stop-color="rgb(59.024048%, 70.843506%, 86.286926%)" stop-opacity="1"/>
<stop offset="0.613281" stop-color="rgb(58.782959%, 70.672607%, 86.204529%)" stop-opacity="1"/>
<stop offset="0.617187" stop-color="rgb(58.54187%, 70.501709%, 86.122131%)" stop-opacity="1"/>
<stop offset="0.621094" stop-color="rgb(58.300781%, 70.330811%, 86.039734%)" stop-opacity="1"/>
<stop offset="0.625" stop-color="rgb(58.059692%, 70.159912%, 85.957336%)" stop-opacity="1"/>
<stop offset="0.628906" stop-color="rgb(57.818604%, 69.987488%, 85.874939%)" stop-opacity="1"/>
<stop offset="0.632812" stop-color="rgb(57.577515%, 69.816589%, 85.792542%)" stop-opacity="1"/>
<stop offset="0.636719" stop-color="rgb(57.3349%, 69.645691%, 85.710144%)" stop-opacity="1"/>
<stop offset="0.640625" stop-color="rgb(57.093811%, 69.474792%, 85.627747%)" stop-opacity="1"/>
<stop offset="0.644531" stop-color="rgb(56.852722%, 69.303894%, 85.543823%)" stop-opacity="1"/>
<stop offset="0.648438" stop-color="rgb(56.611633%, 69.132996%, 85.461426%)" stop-opacity="1"/>
<stop offset="0.652344" stop-color="rgb(56.370544%, 68.960571%, 85.379028%)" stop-opacity="1"/>
<stop offset="0.65625" stop-color="rgb(56.129456%, 68.789673%, 85.296631%)" stop-opacity="1"/>
<stop offset="0.660156" stop-color="rgb(55.888367%, 68.618774%, 85.214233%)" stop-opacity="1"/>
<stop offset="0.664062" stop-color="rgb(55.647278%, 68.447876%, 85.131836%)" stop-opacity="1"/>
<stop offset="0.667969" stop-color="rgb(55.406189%, 68.275452%, 85.049438%)" stop-opacity="1"/>
<stop offset="0.671875" stop-color="rgb(55.1651%, 68.104553%, 84.967041%)" stop-opacity="1"/>
<stop offset="0.675781" stop-color="rgb(54.922485%, 67.933655%, 84.884644%)" stop-opacity="1"/>
<stop offset="0.679688" stop-color="rgb(54.681396%, 67.762756%, 84.802246%)" stop-opacity="1"/>
<stop offset="0.683594" stop-color="rgb(54.440308%, 67.591858%, 84.719849%)" stop-opacity="1"/>
<stop offset="0.6875" stop-color="rgb(54.199219%, 67.420959%, 84.637451%)" stop-opacity="1"/>
<stop offset="0.691406" stop-color="rgb(53.95813%, 67.248535%, 84.555054%)" stop-opacity="1"/>
<stop offset="0.695312" stop-color="rgb(53.717041%, 67.077637%, 84.472656%)" stop-opacity="1"/>
<stop offset="0.699219" stop-color="rgb(53.475952%, 66.906738%, 84.390259%)" stop-opacity="1"/>
<stop offset="0.703125" stop-color="rgb(53.234863%, 66.73584%, 84.307861%)" stop-opacity="1"/>
<stop offset="0.707031" stop-color="rgb(52.993774%, 66.563416%, 84.223938%)" stop-opacity="1"/>
<stop offset="0.710938" stop-color="rgb(52.752686%, 66.392517%, 84.141541%)" stop-opacity="1"/>
<stop offset="0.714844" stop-color="rgb(52.510071%, 66.221619%, 84.059143%)" stop-opacity="1"/>
<stop offset="0.71875" stop-color="rgb(52.268982%, 66.05072%, 83.976746%)" stop-opacity="1"/>
<stop offset="0.722656" stop-color="rgb(52.027893%, 65.879822%, 83.894348%)" stop-opacity="1"/>
<stop offset="0.726563" stop-color="rgb(51.786804%, 65.708923%, 83.811951%)" stop-opacity="1"/>
<stop offset="0.730469" stop-color="rgb(51.545715%, 65.536499%, 83.729553%)" stop-opacity="1"/>
<stop offset="0.734375" stop-color="rgb(51.304626%, 65.365601%, 83.647156%)" stop-opacity="1"/>
<stop offset="0.738281" stop-color="rgb(51.063538%, 65.194702%, 83.564758%)" stop-opacity="1"/>
<stop offset="0.742188" stop-color="rgb(50.822449%, 65.023804%, 83.482361%)" stop-opacity="1"/>
<stop offset="0.746094" stop-color="rgb(50.58136%, 64.851379%, 83.399963%)" stop-opacity="1"/>
<stop offset="0.75" stop-color="rgb(50.340271%, 64.680481%, 83.317566%)" stop-opacity="1"/>
<stop offset="0.753906" stop-color="rgb(50.099182%, 64.509583%, 83.235168%)" stop-opacity="1"/>
<stop offset="0.757812" stop-color="rgb(49.858093%, 64.338684%, 83.152771%)" stop-opacity="1"/>
<stop offset="0.761719" stop-color="rgb(49.615479%, 64.167786%, 83.070374%)" stop-opacity="1"/>
<stop offset="0.765625" stop-color="rgb(49.37439%, 63.996887%, 82.987976%)" stop-opacity="1"/>
<stop offset="0.769531" stop-color="rgb(49.133301%, 63.824463%, 82.905579%)" stop-opacity="1"/>
<stop offset="0.773437" stop-color="rgb(48.892212%, 63.653564%, 82.823181%)" stop-opacity="1"/>
<stop offset="0.777344" stop-color="rgb(48.651123%, 63.482666%, 82.739258%)" stop-opacity="1"/>
<stop offset="0.78125" stop-color="rgb(48.410034%, 63.311768%, 82.65686%)" stop-opacity="1"/>
<stop offset="0.785156" stop-color="rgb(48.168945%, 63.139343%, 82.574463%)" stop-opacity="1"/>
<stop offset="0.789062" stop-color="rgb(47.927856%, 62.968445%, 82.492065%)" stop-opacity="1"/>
<stop offset="0.792969" stop-color="rgb(47.686768%, 62.797546%, 82.409668%)" stop-opacity="1"/>
<stop offset="0.796875" stop-color="rgb(47.445679%, 62.626648%, 82.327271%)" stop-opacity="1"/>
<stop offset="0.800781" stop-color="rgb(47.203064%, 62.45575%, 82.244873%)" stop-opacity="1"/>
<stop offset="0.804688" stop-color="rgb(46.961975%, 62.284851%, 82.162476%)" stop-opacity="1"/>
<stop offset="0.808594" stop-color="rgb(46.720886%, 62.112427%, 82.080078%)" stop-opacity="1"/>
<stop offset="0.8125" stop-color="rgb(46.479797%, 61.941528%, 81.997681%)" stop-opacity="1"/>
<stop offset="0.816406" stop-color="rgb(46.238708%, 61.77063%, 81.915283%)" stop-opacity="1"/>
<stop offset="0.820312" stop-color="rgb(45.99762%, 61.599731%, 81.832886%)" stop-opacity="1"/>
<stop offset="0.824219" stop-color="rgb(45.756531%, 61.428833%, 81.750488%)" stop-opacity="1"/>
<stop offset="0.828125" stop-color="rgb(45.515442%, 61.257935%, 81.668091%)" stop-opacity="1"/>
<stop offset="0.832031" stop-color="rgb(45.274353%, 61.08551%, 81.585693%)" stop-opacity="1"/>
<stop offset="0.835938" stop-color="rgb(45.033264%, 60.914612%, 81.503296%)" stop-opacity="1"/>
<stop offset="0.839844" stop-color="rgb(44.790649%, 60.743713%, 81.420898%)" stop-opacity="1"/>
<stop offset="0.84375" stop-color="rgb(44.549561%, 60.572815%, 81.338501%)" stop-opacity="1"/>
<stop offset="0.847656" stop-color="rgb(44.308472%, 60.400391%, 81.254578%)" stop-opacity="1"/>
<stop offset="0.851562" stop-color="rgb(44.067383%, 60.229492%, 81.17218%)" stop-opacity="1"/>
<stop offset="0.855469" stop-color="rgb(43.826294%, 60.058594%, 81.089783%)" stop-opacity="1"/>
<stop offset="0.859375" stop-color="rgb(43.585205%, 59.887695%, 81.007385%)" stop-opacity="1"/>
<stop offset="0.863281" stop-color="rgb(43.344116%, 59.716797%, 80.924988%)" stop-opacity="1"/>
<stop offset="0.867188" stop-color="rgb(43.103027%, 59.545898%, 80.84259%)" stop-opacity="1"/>
<stop offset="0.871094" stop-color="rgb(42.861938%, 59.373474%, 80.760193%)" stop-opacity="1"/>
<stop offset="0.875" stop-color="rgb(42.62085%, 59.202576%, 80.677795%)" stop-opacity="1"/>
<stop offset="0.878906" stop-color="rgb(42.379761%, 59.031677%, 80.595398%)" stop-opacity="1"/>
<stop offset="0.882813" stop-color="rgb(42.138672%, 58.860779%, 80.513%)" stop-opacity="1"/>
<stop offset="0.886719" stop-color="rgb(41.896057%, 58.688354%, 80.430603%)" stop-opacity="1"/>
<stop offset="0.890625" stop-color="rgb(41.654968%, 58.517456%, 80.348206%)" stop-opacity="1"/>
<stop offset="0.894531" stop-color="rgb(41.413879%, 58.346558%, 80.265808%)" stop-opacity="1"/>
<stop offset="0.898438" stop-color="rgb(41.172791%, 58.175659%, 80.183411%)" stop-opacity="1"/>
<stop offset="0.902344" stop-color="rgb(40.931702%, 58.004761%, 80.101013%)" stop-opacity="1"/>
<stop offset="0.90625" stop-color="rgb(40.690613%, 57.833862%, 80.018616%)" stop-opacity="1"/>
<stop offset="0.910156" stop-color="rgb(40.449524%, 57.661438%, 79.934692%)" stop-opacity="1"/>
<stop offset="0.914063" stop-color="rgb(40.208435%, 57.49054%, 79.852295%)" stop-opacity="1"/>
<stop offset="0.917969" stop-color="rgb(39.967346%, 57.319641%, 79.769897%)" stop-opacity="1"/>
<stop offset="0.921875" stop-color="rgb(39.726257%, 57.148743%, 79.6875%)" stop-opacity="1"/>
<stop offset="0.925781" stop-color="rgb(39.483643%, 56.976318%, 79.605103%)" stop-opacity="1"/>
<stop offset="0.929688" stop-color="rgb(39.242554%, 56.80542%, 79.522705%)" stop-opacity="1"/>
<stop offset="0.933594" stop-color="rgb(39.001465%, 56.634521%, 79.440308%)" stop-opacity="1"/>
<stop offset="0.9375" stop-color="rgb(38.760376%, 56.463623%, 79.35791%)" stop-opacity="1"/>
<stop offset="0.941406" stop-color="rgb(38.519287%, 56.292725%, 79.275513%)" stop-opacity="1"/>
<stop offset="0.945312" stop-color="rgb(38.278198%, 56.121826%, 79.193115%)" stop-opacity="1"/>
<stop offset="0.949219" stop-color="rgb(38.037109%, 55.949402%, 79.110718%)" stop-opacity="1"/>
<stop offset="0.953125" stop-color="rgb(37.796021%, 55.778503%, 79.02832%)" stop-opacity="1"/>
<stop offset="0.957031" stop-color="rgb(37.554932%, 55.607605%, 78.945923%)" stop-opacity="1"/>
<stop offset="0.960938" stop-color="rgb(37.313843%, 55.436707%, 78.863525%)" stop-opacity="1"/>
<stop offset="0.964844" stop-color="rgb(37.071228%, 55.265808%, 78.781128%)" stop-opacity="1"/>
<stop offset="0.96875" stop-color="rgb(36.830139%, 55.09491%, 78.69873%)" stop-opacity="1"/>
<stop offset="0.972656" stop-color="rgb(36.58905%, 54.922485%, 78.616333%)" stop-opacity="1"/>
<stop offset="0.976562" stop-color="rgb(36.347961%, 54.751587%, 78.533936%)" stop-opacity="1"/>
<stop offset="0.980469" stop-color="rgb(36.106873%, 54.580688%, 78.450012%)" stop-opacity="1"/>
<stop offset="0.984375" stop-color="rgb(35.865784%, 54.40979%, 78.367615%)" stop-opacity="1"/>
<stop offset="0.988281" stop-color="rgb(35.624695%, 54.237366%, 78.285217%)" stop-opacity="1"/>
<stop offset="0.992188" stop-color="rgb(35.383606%, 54.066467%, 78.20282%)" stop-opacity="1"/>
<stop offset="0.996094" stop-color="rgb(35.142517%, 53.895569%, 78.120422%)" stop-opacity="1"/>
<stop offset="1" stop-color="rgb(34.901428%, 53.72467%, 78.038025%)" stop-opacity="1"/>
</linearGradient>
</defs>
<path fill-rule="evenodd" fill="rgb(20.776367%, 43.138123%, 77.734375%)" fill-opacity="1" d="M 1936.488281 0 C 3001.578125 0 3872.980469 871.421875 3872.980469 1936.488281 C 3872.980469 3001.578125 3001.578125 3872.980469 1936.488281 3872.980469 C 871.414062 3872.980469 0 3001.578125 0 1936.488281 C 0 871.421875 871.414062 0 1936.488281 0 "/>
<g clip-path="url(#clip-0)">
<g clip-path="url(#clip-1)">
<path fill-rule="nonzero" fill="url(#linear-pattern-0)" d="M 677.460938 896.261719 L 677.460938 2976.738281 L 3175.851562 2976.738281 L 3175.851562 896.261719 Z M 677.460938 896.261719 "/>
</g>
</g>
</svg>
